HIERARCHY
ROOT Hips
{
	OFFSET 0.00000 0.00000 0.00000
	CHANNELS 6 Xposition Yposition Zposition Yrotation Zrotation Xrotation 
	JOINT Lumbar
	{
		OFFSET 0 0 0
		CHANNELS 3 Zrotation Xrotation Yrotation
		JOINT Neck
		{
			OFFSET 0.00 0.2701 0.00
			CHANNELS 3 Zrotation Xrotation Yrotation
			End Site
			{
				OFFSET 0.00 0.1379 0.00
			}
		}
		JOINT RightShoulder
		{
			OFFSET 0.0119 0.2289 0.1181
			CHANNELS 3 Zrotation Xrotation Yrotation
			JOINT RightElbow
			{
				OFFSET 0.00 -0.1475 0.00
				CHANNELS 2 Zrotation Yrotation
				JOINT RightWrist
				{
					OFFSET 0.00 -0.1605 0.00
					CHANNELS 2 Zrotation Xrotation
					End Site
					{
						OFFSET 0.0040 -0.1068 0.0006
					}
				}
			}
		}
		JOINT LeftShoulder
		{
			OFFSET 0.0119 0.2289 -0.1181
			CHANNELS 3 Zrotation Xrotation Yrotation
			JOINT LeftElbow
			{
				OFFSET 0.00 -0.1475 0.00
				CHANNELS 2 Zrotation Yrotation
				JOINT LeftWrist
				{
					OFFSET 0.00 -0.1605 0.00
					CHANNELS 2 Zrotation Xrotation
					End Site
					{
						OFFSET 0.0040 -0.1068 -0.0006
					}
				}
			}
		}
	}
	JOINT RightHip
	{
		OFFSET 0.0316 -0.0424 0.0458
		CHANNELS 3 Zrotation Xrotation Yrotation
		JOINT RightKnee
		{
			OFFSET 0.00 -0.2438 0.00
			CHANNELS 1 Zrotation
			JOINT RightAnkle
			{
				OFFSET 0.00 -0.2449 0.00
				CHANNELS 3 Zrotation Xrotation Yrotation
				End Site
				{
					OFFSET 0.1237 -0.0542 0.0051
				}
			}
		}
	}
	JOINT LeftHip
	{
		OFFSET 0.0316 -0.0424 -0.0458
		CHANNELS 3 Zrotation Xrotation Yrotation
		JOINT LeftKnee
		{
			OFFSET 0.00 -0.2438 0.00
			CHANNELS 1 Zrotation
			JOINT LeftAnkle
			{
				OFFSET 0.00 -0.2449 0.00
				CHANNELS 3 Zrotation Xrotation Yrotation
				End Site
				{
					OFFSET 0.1237 -0.0542 -0.0051
				}
			}
		}
	}
}
MOTION
Frames: 27
Frame Time: 0.02
0.34914 -0.25303 0.07432 -536.04107 0.80572 -6.46343 14.04963 6.26037 -11.1405 -32.41024 -9.58173 -2.11674 -50.12248 -58.93705 -36.82197 106.61337 74.58631 4.9899 -6.36379 -30.12383 20.40077 -28.21296 75.35461 -28.49878 26.34966 12.23508 98.3178 -13.32317 -14.35379 -125.07527 -8.77547 -2.34607 -3.49031 94.25787 8.84529 2.16211 -106.59344 -11.33677 -0.3339 2.28356
0.34897 -0.25274 0.07431 -535.9828 0.69611 -6.50755 14.64619 6.237 -11.37239 -32.46171 -10.16259 -2.11681 -50.24299 -58.91586 -39.79 105.31193 74.31303 6.36911 -6.12381 -30.24965 20.11677 -27.88333 75.19184 -34.56464 23.89018 11.41229 98.37217 -13.31562 -14.38455 -125.06433 -8.77459 -2.3482 -3.49165 94.40603 8.68885 2.10411 -106.55754 -11.24157 -0.29643 2.29612
0.34879 -0.25239 0.07426 -535.91049 0.55603 -6.55715 15.30972 6.21535 -11.62291 -32.51674 -10.80471 -2.11685 -49.88667 -58.8046 -42.42638 103.79898 74.1266 7.90339 -5.84534 -30.40596 19.77814 -27.48558 75.02213 -42.16929 20.80909 10.40514 98.44326 -13.31775 -14.42323 -125.0505 -8.77524 -2.34692 -3.49085 94.59557 8.53035 2.05205 -106.4774 -11.12633 -0.2523 2.31054
0.34861 -0.25207 0.07423 -535.84491 0.43278 -6.60394 15.93521 6.18321 -11.85468 -32.56811 -11.38961 -2.11691 -49.75172 -58.73784 -45.20287 102.3574 73.91356 9.35396 -5.5878 -30.54044 19.47978 -27.14058 74.86913 -48.72688 18.14105 9.52985 98.50567 -13.31513 -14.45733 -125.03646 -8.77501 -2.34731 -3.49109 94.75843 8.3668 2.00329 -106.37063 -11.02097 -0.21172 2.32406
0.34841 -0.25175 0.07422 -535.77712 0.29605 -6.65211 16.59459 6.19052 -12.12922 -32.62681 -12.09484 -2.11695 -49.5997 -58.6439 -48.02617 101.00996 73.63229 10.8715 -5.31597 -30.70957 19.1168 -26.7034 74.66197 -56.74079 14.92504 8.45312 98.57172 -13.3157 -14.49747 -125.03079 -8.77431 -2.34744 -3.49113 94.95639 8.22691 1.92758 -106.46283 -10.91005 -0.16847 2.33797
0.34827 -0.25141 0.07416 -535.71104 0.1811 -6.69882 17.19806 6.11805 -12.31927 -32.67256 -12.56874 -2.11702 -49.36515 -58.59129 -50.67291 99.42097 73.52146 12.28389 -5.06433 -30.81239 18.8742 -26.44175 74.56189 -62.10797 12.69631 7.74924 98.63551 -13.30957 -14.52408 -125.00474 -8.77647 -2.3471 -3.49104 95.08874 8.03831 1.91142 -106.128 -10.80866 -0.1297 2.35133
0.3483 -0.25101 0.07395 -535.65145 0.12627 -6.73892 17.63685 5.80722 -12.27211 -32.6693 -12.34554 -2.11721 -49.06948 -58.65757 -52.90683 97.20537 73.83013 13.34444 -4.88255 -30.73762 18.9895 -26.68508 74.79576 -59.5934 13.40648 8.14764 98.67684 -13.30359 -14.53761 -124.93864 -8.77306 -2.34758 -3.49116 95.0499 7.71046 2.04034 -104.64486 -10.71537 -0.10086 2.36406
0.34839 -0.2506 0.07369 -535.59459 0.0958 -6.77769 18.01542 5.41909 -12.13922 -32.65495 -11.89423 -2.11744 -48.70017 -58.77373 -54.97521 94.75651 74.31371 14.29519 -4.72177 -30.59308 19.22536 -27.10612 75.13136 -54.40515 15.11772 8.92155 98.71758 -13.28681 -14.53272 -124.84704 -8.77465 -2.3475 -3.49121 94.94003 7.33494 2.23173 -102.73158 -10.63628 -0.07741 2.37596
0.34845 -0.2502 0.07347 -535.53752 0.05916 -6.81771 18.41782 5.07814 -12.04523 -32.65418 -11.57735 -2.11764 -48.32939 -58.87924 -57.12343 92.42445 74.73939 15.31126 -4.54807 -30.47144 19.39853 -27.44442 75.39582 -50.55958 16.33519 9.50698 98.76651 -13.26105 -14.51875 -124.75966 -8.78294 -2.34672 -3.49121 94.84921 6.98468 2.407 -100.99978 -10.56645 -0.05432 2.3873
0.34852 -0.24975 0.07321 -535.47508 0.00089 -6.8547 18.8389 4.68723 -11.95215 -32.6186 -11.1379 -2.11787 -48.08106 -58.92871 -59.24125 90.04315 75.07996 16.27262 -4.38645 -30.3863 19.60434 -27.79158 75.76308 -46.19886 17.70737 10.16565 98.7825 -13.29363 -14.5775 -124.71216 -8.75461 -2.34958 -3.49144 94.81489 6.61862 2.53309 -99.31805 -10.43137 -0.01965 2.40248
0.34859 -0.24942 0.07302 -535.4253 -0.00632 -6.89823 19.20415 4.38095 -11.83654 -32.65143 -10.89229 -2.11806 -47.57692 -59.11043 -61.38664 87.70695 75.63425 17.31383 -4.20621 -30.21037 19.77 -28.15972 75.94313 -42.29401 18.98746 10.75779 98.86683 -13.20279 -14.48186 -124.56444 -8.80223 -2.3451 -3.49128 94.6465 6.27485 2.77333 -97.43986 -10.43357 -0.00982 2.40967
0.34864 -0.24947 0.07308 -535.40453 0.12362 -6.95501 19.4438 4.33657 -11.6801 -32.88823 -11.29355 -2.1181 -46.27976 -59.62467 -63.65116 85.59558 76.77552 18.65415 -3.95993 -29.78147 19.80931 -28.57528 75.55893 -39.95847 19.91008 11.12452 99.13927 -12.76678 -13.95167 -124.24018 -9.07129 -2.31767 -3.48923 94.11634 5.99894 3.33942 -95.04404 -10.83101 -0.07281 2.39286
0.34871 -0.24966 0.07322 -535.39747 0.30404 -7.01933 19.62607 4.37842 -11.50383 -33.19208 -11.88741 -2.11809 -44.73795 -60.27426 -65.94669 83.53095 78.12155 20.06957 -3.69574 -29.26702 19.80228 -29.00073 74.98729 -38.22246 20.68519 11.40406 99.48062 -12.20811 -13.26959 -123.79757 -9.41421 -2.28335 -3.48692 93.45526 5.74834 4.01317 -92.48068 -11.36261 -0.15968 2.36839
0.34879 -0.24977 0.07332 -535.38762 0.45993 -7.08362 19.82563 4.37453 -11.33619 -33.45697 -12.35573 -2.11811 -43.39406 -60.87625 -68.23264 81.41733 79.34301 21.41399 -3.44669 -28.80427 19.80679 -29.39947 74.51584 -36.43963 21.43417 11.69001 99.79073 -11.71029 -12.66472 -123.34861 -9.71481 -2.25413 -3.48533 92.85966 5.48941 4.62081 -90.04688 -11.81989 -0.23191 2.34886
0.34877 -0.24992 0.07343 -535.36326 0.62269 -7.13371 20.06161 4.3951 -11.16695 -33.75679 -12.9751 -2.11812 -41.72915 -61.42264 -70.50845 79.41145 80.68927 22.9044 -3.17051 -28.28511 19.8533 -29.89523 73.98346 -33.64444 22.59851 12.1243 100.10023 -11.19092 -12.02256 -123.15612 -10.05249 -2.21685 -3.48131 92.23599 5.21454 5.30394 -87.3722 -12.33369 -0.32003 2.32329
0.34896 -0.25004 0.07355 -535.37242 0.78367 -7.21496 20.20715 4.38686 -10.99776 -34.00059 -13.33043 -2.11813 -40.61553 -62.11454 -72.79627 77.19678 81.84001 24.11742 -2.94416 -27.86387 19.8027 -30.19264 73.53355 -33.09404 22.86541 12.23015 100.42773 -10.68698 -11.42488 -122.3973 -10.33048 -2.19439 -3.48214 91.64107 4.98062 5.85363 -85.16542 -12.76185 -0.38102 2.30832
0.34971 -0.25003 0.07364 -535.47021 0.91984 -7.3821 20.13183 4.27261 -10.83124 -34.06766 -12.89412 -2.11814 -41.61662 -63.19072 -75.27497 74.38459 82.24094 24.48084 -2.87869 -27.73534 19.46932 -29.90709 73.34442 -38.95961 20.55067 11.39595 100.78515 -10.25986 -10.96647 -120.14127 -10.42488 -2.21764 -3.49792 91.15403 4.8437 6.01603 -84.29152 -12.91688 -0.35812 2.32602
0.35068 -0.25 0.07373 -535.6013 1.05373 -7.57998 19.96502 4.12779 -10.6664 -34.07717 -12.18937 -2.11814 -43.09267 -64.40565 -77.73761 71.36474 82.46424 24.57411 -2.86072 -27.70824 19.04392 -29.42667 73.2463 -47.00998 17.3586 10.24238 101.1589 -9.85194 -10.56329 -117.31309 -10.45678 -2.2556 -3.51838 90.70146 4.74873 6.03849 -83.89674 -12.98164 -0.30762 2.35442
0.35155 -0.24999 0.07382 -535.71756 1.19355 -7.76275 19.83059 4.00087 -10.50268 -34.11674 -11.61886 -2.11815 -43.98882 -65.54637 -80.09633 68.44601 82.87624 24.83578 -2.80808 -27.63432 18.67723 -29.05628 73.11481 -53.83336 14.65519 9.26907 101.52702 -9.43233 -10.14691 -114.72154 -10.5177 -2.28464 -3.53563 90.23577 4.64185 6.12005 -83.28457 -13.09025 -0.27189 2.3769
0.35242 -0.24996 0.07391 -535.83323 1.31466 -7.95081 19.73279 3.85998 -10.32997 -34.14205 -11.00355 -2.11815 -46.36929 -66.73833 -82.91354 65.49574 82.85088 24.91192 -2.80863 -27.56104 18.2382 -28.59631 72.94446 -61.65996 11.56891 8.1453 101.88977 -9.02028 -9.66979 -112.2221 -10.57853 -2.32232 -3.55718 89.75468 4.50751 6.22526 -82.66375 -13.19195 -0.22781 2.40345
0.35334 -0.24995 0.07401 -535.95762 1.4733 -8.13476 19.53793 3.73984 -10.17698 -34.1827 -10.41492 -2.11816 -45.82939 -67.85551 -84.78669 62.56698 83.67748 25.30366 -2.71167 -27.5109 17.92791 -28.27574 72.87742 -67.91376 9.07178 7.25935 102.26697 -8.59949 -9.3408 -109.39961 -10.62383 -2.34628 -3.57122 89.31563 4.43765 6.24548 -82.17829 -13.28445 -0.19398 2.4243
0.3544 -0.24999 0.07415 -536.09962 1.73747 -8.30208 19.09619 3.68406 -10.07587 -34.27772 -9.96894 -2.11822 -36.63229 -68.72183 -83.92467 59.70362 87.01965 26.68198 -2.3188 -27.50655 18.00173 -28.39451 73.0889 -69.23309 8.43458 7.11663 102.67773 -8.14289 -9.35213 -105.80074 -10.64031 -2.32291 -3.56038 88.98459 4.55573 6.07428 -81.93981 -13.37636 -0.19746 2.42576
0.3555 -0.25006 0.07431 -536.24867 2.03875 -8.46362 18.56058 3.64988 -9.9953 -34.39009 -9.55778 -2.11829 -24.56855 -69.5073 -82.13628 56.87996 91.20133 28.37775 -1.82916 -27.52113 18.20749 -28.65933 73.39948 -68.89465 8.42033 7.2241 103.10285 -7.67862 -9.52146 -101.90336 -10.64309 -2.28635 -3.54235 88.69535 4.73339 5.82054 -81.82361 -13.46085 -0.21167 2.42136
0.35656 -0.25012 0.07446 -536.39355 2.32218 -8.62648 18.06897 3.60566 -9.9065 -34.49572 -9.1272 -2.11836 -14.13313 -70.3385 -80.86039 54.06385 94.91999 29.89567 -1.39364 -27.52317 18.34889 -28.85228 73.65512 -69.35913 8.10613 7.21061 103.52222 -7.22318 -9.6557 -98.157 -10.65267 -2.25972 -3.5296 88.38735 4.87039 5.59757 -81.65876 -13.54642 -0.21938 2.42039
0.3577 -0.25016 0.07461 -536.54447 2.61064 -8.79647 17.56804 3.56135 -9.81201 -34.59508 -8.70143 -2.11843 -2.34591 -71.14507 -79.2034 51.12131 98.97925 31.54595 -0.91654 -27.54554 18.50506 -29.06006 73.95459 -69.72146 7.82176 7.21238 103.93772 -6.74626 -9.63776 -94.31869 -10.65802 -2.21705 -3.50858 88.0792 5.06612 5.39653 -81.48173 -13.63904 -0.233 2.41658
0.35868 -0.25026 0.07477 -536.68303 2.89632 -8.94918 17.06596 3.52278 -9.73556 -34.71171 -8.27882 -2.11849 7.32047 -71.9714 -78.11319 48.46823 102.52752 32.99952 -0.50297 -27.52845 18.6637 -29.27616 74.18646 -69.83622 7.64792 7.25122 104.36597 -6.31139 -9.97238 -90.61733 -10.66931 -2.20437 -3.50294 87.7812 5.15325 5.1342 -81.35235 -13.71584 -0.2372 2.41713
0.35915 -0.25051 0.07496 -536.79453 3.17494 -9.06094 16.5796 3.49465 -9.69279 -34.87729 -7.84549 -2.11854 10.33675 -72.96054 -78.87598 46.48936 104.47343 33.8236 -0.28578 -27.40096 18.79128 -29.46241 74.19711 -70.00082 7.51303 7.28594 104.8128 -6.00018 -11.25303 -87.29665 -10.70435 -2.27841 -3.54211 87.49842 4.92491 4.70498 -81.32711 -13.75572 -0.21286 2.4313
